<svg width="24.000000000000004" height="24.000000000000004" xmlns="http://www.w3.org/2000/svg">
 <g>
  <title>Layer 1</title>
  <g data-name="Layer 2" id="svg_1" stroke="null">
   <g data-name="skip-forward" id="svg_2" stroke="null">
    <rect fill="#ffffff" width="34" height="34" opacity="0" id="svg_3" stroke="null" y="0.01601" x="0.16962"/>
    <path fill="#ffffff" d="m16.16962,6.01601a1,1 0 0 0 -1,1l0,3.82l-0.14,-0.15l-5.1,-4.21a2.1,2.1 0 0 0 -2.21,-0.26a1.76,1.76 0 0 0 -1,1.59l0,8.42a1.76,1.76 0 0 0 1,1.59a2.23,2.23 0 0 0 0.91,0.2a2.06,2.06 0 0 0 1.3,-0.46l5.1,-4.21l0.14,-0.15l0,3.82a1,1 0 0 0 2,0l0,-10a1,1 0 0 0 -1,-1zm-7.5,9.91l0,-7.91l4.82,4l-4.82,3.91z" id="svg_4" stroke="null"/>
   </g>
  </g>
 </g>

</svg>